<svg width="59" height="59" viewBox="0 0 59 59" fill="none" xmlns="http://www.w3.org/2000/svg">
<path d="M52.9998 26.3774C54.9998 20.2581 49.9998 20.2581 49.9998 20.2581C42.9998 21.278 47.9998 27.3972 47.9998 27.3972C47.9998 27.3972 53.9998 38.6158 43.4165 38.2223C32.8332 37.8288 36 30.9992 36 30.9992C42.0698 25.8005 45 24.9992 44 16.4992C43 7.99922 35.3498 4.73406 27.5 4.99922C20.3537 5.24062 13.5 6.49846 12.5 15.4988C11.5 24.4992 15.5 27.9396 22.5 30.9992C22.5 30.9992 25.9998 38.6159 13.9998 38.6159C13.9998 38.6159 3.9998 38.6159 9.9998 25.3575C9.9998 25.3575 11.9998 18.2184 5.9998 20.2581C5.9998 20.2581 2.9998 21.278 3.9998 26.3774C3.9998 26.3774 -1.0002 47.7948 17.9998 42.6954C17.9998 42.6954 33.9998 39.6358 39.9998 42.6954C45.9998 45.755 53.9998 43.7153 53.9998 33.5165L52.9998 26.3774Z" fill="#FF48D8"/>
<path d="M26 31C26 31 30 39.4473 19 42.5697C19 42.5697 12 41.5289 12 47.7738C12 54.0187 16 54.0187 18 52.9779C20 51.9371 21 48.8146 21 48.8146C21 48.8146 21 45.8757 17 48.9982C13 52.1207 14 45.6922 21 44.6514C28 43.6106 31 35.1633 29 31H26Z" fill="#DB4EBD"/>
<path d="M12.1157 41C12.1157 41 10.1157 42 8.1157 40C6.1157 38 4.1157 39 4.1157 39C4.1157 39 0.115703 40 3.1157 44C3.1157 44 4.1157 46 7.1157 45C7.1157 45 9 44 7 43C5 42 3 41 5 41C7 41 11.2314 46 12.1157 41Z" fill="#DB4EBD"/>
<path d="M31.6083 31C31.6083 31 27.6083 39.4487 38.6083 42.5711C38.6083 42.5711 45.6083 41.5303 45.6083 47.7752C45.6083 54.0201 41.6083 54.0201 39.6083 52.9793C37.6083 51.9385 36.6083 48.816 36.6083 48.816C36.6083 48.816 37.0001 45.8771 41.0001 48.9996C45.0001 52.1221 43.6083 45.6936 36.6083 44.6528C29.6083 43.612 26.6083 35.1633 28.6083 31H31.6083Z" fill="#DB4EBD"/>
<path d="M47 41C47 41 49 42 51 40C53 38 55 39 55 39C55 39 59 40 56 44C56 44 55 46 52 45C52 45 50.1157 44 52.1157 43C54.1157 42 56.1157 41 54.1157 41C52.1157 41 47.8843 46 47 41Z" fill="#DB4EBD"/>
<path d="M53 25.9999C55 19.9999 50 19.9999 50 19.9999C43 20.9999 48 26.9999 48 26.9999C48 26.9999 54 37.9999 43.4167 37.6141C32.8333 37.2283 36.5 31.0007 36.5 31.0007C42.5698 25.9033 45.893 21.4064 44 14.5C42.0522 7.39351 34.7869 4.61204 28.5 4.49969C22.0544 4.3845 14.5419 7.02645 12.5 14.0007C10.363 21.2995 15 28.0007 22 31.0007C22 31.0007 26 37.9999 14 37.9999C14 37.9999 3.99998 37.9999 9.99998 24.9999C9.99998 24.9999 12 17.9999 5.99998 19.9999C5.99998 19.9999 2.99998 20.9999 3.99998 25.9999" stroke="#852495" stroke-width="2" stroke-miterlimit="10" stroke-linecap="round" stroke-linejoin="round"/>
<path d="M27 31.5C27 31.5 30 40 19 43C19 43 12 42 12 48C12 54 16 54 18 53C20 52 21 49 21 49" stroke="#852495" stroke-width="2" stroke-miterlimit="10" stroke-linecap="round" stroke-linejoin="round"/>
<path d="M31 31.5C31 31.5 27.709 40 38.709 43C38.709 43 45.709 42 45.709 48C45.709 54 41.709 54 39.709 53C37.709 52 36.709 49 36.709 49" stroke="#852495" stroke-width="2" stroke-miterlimit="10" stroke-linecap="round" stroke-linejoin="round"/>
<path d="M12.1157 41C12.1157 41 10.1157 42 8.1157 40C6.1157 38 4.1157 39 4.1157 39C4.1157 39 0.115703 40 3.1157 44C3.1157 44 4.1157 46 7.1157 45" stroke="#852495" stroke-width="2" stroke-miterlimit="10" stroke-linecap="round" stroke-linejoin="round"/>
<path d="M47 41C47 41 49 42 51 40C53 38 55 39 55 39C55 39 59 40 56 44C56 44 55 46 52 45" stroke="#852495" stroke-width="2" stroke-miterlimit="10" stroke-linecap="round" stroke-linejoin="round"/>
</svg>
