<svg width="512" height="512" viewBox="0 0 512 512" fill="none" xmlns="http://www.w3.org/2000/svg">
<path fill-rule="evenodd" clip-rule="evenodd" d="M344.596 211.901C344.596 211.901 344.596 211.901 344.596 211.901C344.594 211.906 344.59 211.913 344.586 211.922C344.565 211.969 344.517 212.076 344.446 212.238C344.303 212.562 344.069 213.109 343.765 213.857C343.156 215.356 342.277 217.644 341.313 220.556C339.366 226.43 337.158 234.574 336.014 243.734C333.68 262.428 336.055 282.227 349.991 297.375C358.745 306.89 364.924 311.135 369.247 313.173C373.209 315.04 376.737 315.604 381.593 315.604C383.422 315.604 385.647 315.466 388.228 315.307C399.28 314.625 416.865 313.539 437.894 321.11C448.593 324.962 454.144 336.757 450.292 347.456C446.441 358.155 434.645 363.705 423.947 359.854C411.59 355.405 404.196 355.81 394.206 356.356C390.49 356.559 386.415 356.782 381.593 356.782C372.723 356.782 362.739 355.629 351.688 350.419C340.998 345.38 330.663 337.185 319.687 325.254C294.16 297.508 292.078 263.262 295.153 238.633C296.714 226.132 299.676 215.296 302.225 207.604C303.507 203.734 304.707 200.593 305.615 198.359C306.069 197.241 306.452 196.345 306.738 195.693C306.881 195.367 307 195.102 307.091 194.9L307.208 194.645L307.25 194.554L307.267 194.517L307.275 194.502C307.278 194.494 307.281 194.487 325.925 203.223L307.281 194.487C312.106 184.19 324.364 179.754 334.661 184.579C344.938 189.394 349.377 201.616 344.596 211.901Z" fill="#E035BC"/>
<path fill-rule="evenodd" clip-rule="evenodd" d="M177.242 200.751L177.229 200.73C177.224 200.724 177.223 200.721 177.224 200.722M183.217 172.264C173.712 178.478 171.033 191.209 177.224 200.722L177.26 200.779C177.305 200.849 177.389 200.983 177.51 201.177C177.752 201.565 178.137 202.194 178.635 203.04C179.632 204.736 181.068 207.282 182.701 210.492C185.999 216.977 189.935 225.851 192.75 235.694C198.646 256.303 198.213 275.368 185.859 288.796C177.185 298.224 171.22 302.065 167.272 303.757C163.702 305.287 160.449 305.656 155.541 305.349C153.808 305.241 151.737 304.992 149.357 304.705C138.121 303.35 119.996 301.165 97.9553 309.1C87.2565 312.952 81.7058 324.747 85.5573 335.446C89.4089 346.145 101.204 351.695 111.903 347.844C124.058 343.468 131.23 344.259 141.474 345.388C144.871 345.762 148.606 346.174 152.972 346.447C161.79 346.998 172.049 346.51 183.492 341.605C194.556 336.864 205.105 328.695 216.163 316.676C243.271 287.21 239.574 249.655 232.34 224.368C228.591 211.263 223.496 199.87 219.404 191.825C217.342 187.77 215.493 184.485 214.129 182.166C213.446 181.005 212.882 180.081 212.469 179.418C212.263 179.086 212.094 178.819 211.967 178.62L211.809 178.374L211.754 178.289L211.733 178.256L211.724 178.243C211.72 178.236 211.716 178.23 194.601 189.42L211.716 178.23C205.494 168.713 192.734 166.042 183.217 172.264Z" fill="#E035BC"/>
<path fill-rule="evenodd" clip-rule="evenodd" d="M287.168 168.416L287.175 168.394L287.154 168.462C287.127 168.547 287.078 168.703 287.01 168.928C286.873 169.377 286.66 170.097 286.39 171.061C285.85 172.993 285.092 175.885 284.283 179.519C282.655 186.833 280.877 196.921 280.208 208.097C278.815 231.398 282.492 254.728 296.471 269.922C303.899 277.996 308.491 279.077 310.735 279.286C313.867 279.578 318.034 278.691 325.852 275.283C327.437 274.592 329.237 273.733 331.234 272.781C345.307 266.068 369.16 254.69 396.385 264.49C407.084 268.342 412.635 280.137 408.783 290.836C404.931 301.535 393.136 307.086 382.437 303.234C372.327 299.594 365.284 302.755 350.462 309.408C347.979 310.523 345.277 311.735 342.306 313.031C333.394 316.915 321.048 321.603 306.915 320.287C291.895 318.887 278.471 311.175 266.167 297.802C240.684 270.103 237.497 232.524 239.104 205.64C239.936 191.723 242.125 179.399 244.088 170.574C245.075 166.139 246.019 162.53 246.732 159.978C247.089 158.7 247.39 157.683 247.611 156.955C247.722 156.591 247.812 156.299 247.881 156.083L247.966 155.815L247.995 155.724L248.011 155.675C248.013 155.669 248.015 155.662 267.59 162.045L248.015 155.662C251.54 144.852 263.161 138.945 273.972 142.47C284.771 145.991 290.675 157.593 287.175 168.394" fill="#E035BC"/>
<path fill-rule="evenodd" clip-rule="evenodd" d="M193.446 161.553L193.439 161.531L193.461 161.599C193.487 161.684 193.536 161.84 193.604 162.065C193.741 162.514 193.955 163.234 194.224 164.199C194.764 166.13 195.522 169.022 196.331 172.657C197.959 179.971 199.737 190.058 200.406 201.234C201.799 224.536 198.122 247.865 184.143 263.06C176.715 271.133 172.124 272.215 169.879 272.424C166.747 272.715 162.58 271.828 154.763 268.42C153.178 267.729 151.377 266.871 149.38 265.918C135.307 259.205 111.454 247.827 84.2292 257.628C73.5304 261.479 67.9797 273.275 71.8312 283.973C75.6828 294.672 87.4782 300.223 98.177 296.371C108.288 292.732 115.33 295.892 130.152 302.545C132.636 303.66 135.337 304.873 138.309 306.168C147.22 310.052 159.567 314.741 173.699 313.424C188.72 312.024 202.144 304.313 214.447 290.939C239.93 263.24 243.118 225.661 241.51 198.777C240.678 184.86 238.49 172.536 236.526 163.711C235.539 159.277 234.596 155.668 233.882 153.115C233.525 151.838 233.224 150.82 233.003 150.093C232.893 149.729 232.802 149.436 232.734 149.22L232.648 148.952L232.619 148.861L232.603 148.812C232.601 148.806 232.599 148.8 213.024 155.182L232.599 148.8C229.074 137.989 217.453 132.082 206.642 135.607C195.843 139.128 189.939 150.731 193.439 161.531" fill="#E035BC"/>
<path d="M382.879 172.339C382.879 250.041 316.817 354.208 235.326 354.208C153.834 354.208 87.7717 250.041 87.7717 172.339C87.7717 94.6379 153.834 48.8059 235.326 48.8059C316.817 48.8059 382.879 94.6379 382.879 172.339Z" fill="#FF48D8"/>
<path fill-rule="evenodd" clip-rule="evenodd" d="M315.103 232.909C315.105 232.902 315.107 232.896 338.27 239.253L315.107 232.895C318.618 220.103 331.835 212.578 344.628 216.09C357.409 219.598 364.931 232.795 361.443 245.577L361.44 245.59L361.421 245.661C361.395 245.758 361.349 245.935 361.284 246.187C361.155 246.692 360.955 247.498 360.704 248.571C360.2 250.722 359.497 253.931 358.757 257.948C357.267 266.033 355.675 277.133 355.196 289.311C354.18 315.153 358.437 339.303 371.393 353.386C378.414 361.018 382.27 361.547 383.449 361.657C385.664 361.863 389.15 361.292 396.876 357.925C398.35 357.282 400.064 356.46 401.997 355.533L401.998 355.533C415.926 348.852 441.233 336.713 469.943 347.049C482.425 351.543 488.901 365.304 484.408 377.786C479.914 390.268 466.153 396.744 453.671 392.25C444.934 389.105 439.255 391.642 424.371 398.29C421.881 399.402 419.134 400.629 416.073 401.963C407.07 405.888 394.042 410.893 378.993 409.491C362.908 407.992 348.748 399.728 336.038 385.913C309.532 357.102 306.066 316.054 307.193 287.422C307.785 272.362 309.731 258.905 311.511 249.243C312.406 244.387 313.271 240.425 313.927 237.623C314.255 236.22 314.532 235.103 314.736 234.305C314.838 233.906 314.922 233.587 314.984 233.35L315.062 233.059L315.089 232.961L315.103 232.909ZM129.651 289.102C119.207 280.987 117.287 265.946 125.372 255.465C133.475 244.961 148.559 243.015 159.063 251.117L144.601 269.864C159.063 251.118 159.07 251.123 159.078 251.129L159.094 251.142L159.131 251.17L159.221 251.241C159.289 251.294 159.371 251.358 159.468 251.434C159.66 251.587 159.909 251.786 160.209 252.03C160.808 252.517 161.615 253.186 162.587 254.025C164.526 255.699 167.159 258.076 170.143 261.06C176.007 266.924 183.731 275.627 190.128 286.379C196.471 297.041 202.307 311.062 202.432 327.132C202.563 343.944 196.405 360.677 182.659 375.618C169.561 389.855 154.847 397.791 138.479 399.21C123.312 400.525 109.771 395.867 99.9596 391.987C96.1316 390.474 92.8894 389.107 89.972 387.878L89.9717 387.878C84.13 385.415 79.5906 383.502 74.2581 382.058C67.6607 380.272 62.877 380.258 58.1631 381.955C45.6812 386.449 31.9199 379.973 27.4264 367.491C22.933 355.009 29.4088 341.248 41.8907 336.754C58.6236 330.731 73.9998 332.218 86.8117 335.687C95.4508 338.025 104.681 341.909 111.673 344.851C113.918 345.796 115.933 346.643 117.622 347.311C126.255 350.724 130.944 351.642 134.329 351.349C136.512 351.159 140.671 350.302 147.304 343.092C153.289 336.587 154.423 331.443 154.393 327.505C154.356 322.826 152.579 317.224 148.842 310.942C145.158 304.752 140.335 299.192 136.173 295.03C134.144 293.001 132.393 291.424 131.202 290.396C130.609 289.885 130.164 289.517 129.903 289.305C129.773 289.199 129.689 289.133 129.657 289.107L129.651 289.102Z" fill="url(#paint0_linear_701_7321)"/>
<path fill-rule="evenodd" clip-rule="evenodd" d="M309.965 257.461C325.467 264.504 332.339 282.76 325.345 298.271C325.343 298.274 325.342 298.278 325.34 298.283C325.32 298.328 325.27 298.44 325.195 298.616C325.044 298.968 324.788 299.574 324.454 300.407C323.783 302.078 322.806 304.634 321.716 307.869C319.51 314.421 316.986 323.337 315.507 333.079C312.311 354.128 315.068 370.755 324.596 380.666C351.581 408.734 385.595 407.472 413.278 388.206C427.278 378.462 446.525 381.913 456.268 395.912C466.012 409.912 462.561 429.16 448.562 438.903C400.806 472.139 331.952 477.44 280.069 423.473C250.163 392.365 250.349 350.747 254.44 323.806C256.605 309.552 260.189 297.036 263.18 288.155C264.689 283.674 266.083 280.013 267.134 277.396C267.66 276.085 268.103 275.029 268.434 274.256C268.6 273.87 268.739 273.553 268.846 273.31L268.984 273L269.035 272.888L269.065 272.822C269.069 272.812 269.073 272.803 297.19 285.578L269.073 272.803C276.128 257.275 294.437 250.406 309.965 257.461Z" fill="#FF48D8"/>
<path fill-rule="evenodd" clip-rule="evenodd" d="M195.004 257.461C179.503 264.504 172.631 282.76 179.625 298.271C179.626 298.274 179.628 298.278 179.63 298.283C179.65 298.328 179.699 298.44 179.774 298.616C179.926 298.968 180.181 299.574 180.515 300.407C181.186 302.078 182.163 304.634 183.253 307.869C185.459 314.421 187.983 323.337 189.462 333.079C192.659 354.128 189.901 370.755 180.373 380.666C153.388 408.734 119.375 407.472 91.6912 388.206C77.6916 378.462 58.4442 381.913 48.7009 395.912C38.9575 409.912 42.408 429.16 56.4076 438.903C104.163 472.139 173.017 477.44 224.9 423.473C254.806 392.365 254.62 350.747 250.529 323.806C248.365 309.552 244.78 297.036 241.789 288.155C240.28 283.674 238.886 280.013 237.836 277.396C237.309 276.085 236.867 275.029 236.535 274.256C236.369 273.87 236.23 273.553 236.123 273.31L235.985 273L235.934 272.888L235.905 272.822C235.9 272.812 235.896 272.803 207.779 285.578L235.896 272.803C228.841 257.275 210.533 250.406 195.004 257.461Z" fill="#FF48D8"/>
<path d="M261.757 227.243C261.757 246.195 277.121 261.558 296.071 261.558C315.023 261.558 330.386 246.194 330.386 227.243C330.386 208.292 315.023 192.928 296.071 192.928C277.121 192.928 261.757 208.291 261.757 227.243Z" fill="white"/>
<path d="M268.619 234.106C268.619 247.373 279.374 258.126 292.64 258.126C305.906 258.126 316.66 247.373 316.66 234.106C316.66 220.84 305.906 210.086 292.64 210.086C279.374 210.085 268.619 220.84 268.619 234.106Z" fill="url(#paint1_linear_701_7321)"/>
<path d="M302.934 218.664C302.934 221.507 305.238 223.812 308.081 223.812C310.924 223.812 313.228 221.507 313.228 218.664C313.228 215.821 310.924 213.517 308.081 213.517C305.238 213.517 302.934 215.821 302.934 218.664Z" fill="white"/>
<path d="M152.97 226.77C152.97 244.253 167.144 258.427 184.627 258.427C202.111 258.427 216.286 244.253 216.286 226.77C216.286 209.286 202.112 195.111 184.627 195.111C167.143 195.111 152.97 209.286 152.97 226.77Z" fill="white"/>
<path d="M160.645 232.056C160.645 245.34 171.414 256.109 184.697 256.109C197.982 256.109 208.75 245.339 208.75 232.056C208.75 218.773 197.981 208.003 184.697 208.003C171.413 208.003 160.645 218.772 160.645 232.056Z" fill="url(#paint2_linear_701_7321)"/>
<path d="M193.126 218.664C193.126 221.507 195.431 223.812 198.274 223.812C201.117 223.812 203.421 221.507 203.421 218.664C203.421 215.821 201.117 213.517 198.274 213.517C195.431 213.516 193.126 215.821 193.126 218.664Z" fill="white"/>
<path d="M245.593 282.776C245.593 282.776 249.539 283.021 255.053 277.799C262.239 270.993 261.749 280.157 261.749 280.157C261.749 280.157 258.879 295.873 246.444 295.873C234.008 295.873 228.588 285.658 227.95 283.693C227.312 281.728 226.037 272.693 233.371 277.014C240.706 281.334 242.764 282.628 245.593 282.776Z" fill="#160F2E"/>
<ellipse cx="134.097" cy="106.421" rx="15.7319" ry="35.9587" transform="rotate(43.0051 134.097 106.421)" fill="white" fill-opacity="0.2"/>
<ellipse cx="131.07" cy="103.062" rx="10.4852" ry="23.9662" transform="rotate(43.0051 131.07 103.062)" fill="white" fill-opacity="0.2"/>
<defs>
<linearGradient id="paint0_linear_701_7321" x1="255.917" y1="215.227" x2="255.917" y2="409.732" gradientUnits="userSpaceOnUse">
<stop offset="0.494792" stop-color="#FF48D8"/>
<stop offset="1" stop-color="#E834C1"/>
</linearGradient>
<linearGradient id="paint1_linear_701_7321" x1="270.408" y1="234.244" x2="262.387" y2="234.244" gradientUnits="userSpaceOnUse">
<stop/>
<stop offset="0.22" stop-color="#080018"/>
<stop offset="0.45" stop-color="#100030"/>
<stop offset="0.64" stop-color="#140050"/>
<stop offset="0.84" stop-color="#180070"/>
<stop offset="0.92" stop-color="#0C0038"/>
<stop offset="1"/>
</linearGradient>
<linearGradient id="paint2_linear_701_7321" x1="209.535" y1="232.195" x2="217.438" y2="232.195" gradientUnits="userSpaceOnUse">
<stop/>
<stop offset="0.22" stop-color="#080018"/>
<stop offset="0.45" stop-color="#100030"/>
<stop offset="0.64" stop-color="#140050"/>
<stop offset="0.84" stop-color="#180070"/>
<stop offset="0.92" stop-color="#0C0038"/>
<stop offset="1"/>
</linearGradient>
</defs>
</svg>
